<svg width="101" height="101" viewBox="0 0 101 101" fill="none" xmlns="http://www.w3.org/2000/svg">
<g clip-path="url(#clip0_57_17)">
<path d="M0.899902 11.4175C0.899902 10.1743 1.39376 8.98202 2.27284 8.10295C3.15192 7.22387 4.3442 6.73001 5.5874 6.73001H32.1687C39.8374 6.73001 46.6499 10.4175 50.9187 16.1113C53.1007 13.1942 55.9338 10.827 59.1922 9.19833C62.4507 7.56963 66.0445 6.72441 69.6874 6.73001H96.2187C97.4619 6.73001 98.6541 7.22387 99.5332 8.10295C100.412 8.98202 100.906 10.1743 100.906 11.4175V77.0425C100.906 78.2857 100.412 79.478 99.5332 80.3571C98.6541 81.2362 97.4619 81.73 96.2187 81.73H68.0499C66.2032 81.73 64.3745 82.0937 62.6684 82.8004C60.9622 83.5071 59.412 84.5429 58.1062 85.8488L54.2187 89.73C53.3397 90.6078 52.1483 91.1009 50.9062 91.1009C49.664 91.1009 48.4726 90.6078 47.5937 89.73L43.7062 85.8488C42.4003 84.5429 40.8501 83.5071 39.1439 82.8004C37.4378 82.0937 35.6091 81.73 33.7624 81.73H5.5874C4.3442 81.73 3.15192 81.2362 2.27284 80.3571C1.39376 79.478 0.899902 78.2857 0.899902 77.0425L0.899902 11.4175ZM46.2187 75.9425L46.2437 44.2363L46.2312 30.155C46.2278 26.4276 44.7448 22.8539 42.1079 20.2194C39.4711 17.5849 35.8961 16.105 32.1687 16.105H10.2749V72.355H33.7562C38.1651 72.3549 42.4846 73.5983 46.2187 75.9425ZM55.6187 30.1675L55.5937 75.93C59.3257 73.5931 63.6403 72.3541 68.0437 72.355H91.5249V16.105H69.6812C65.9515 16.105 62.3747 17.5866 59.7375 20.2238C57.1002 22.8611 55.6187 26.4379 55.6187 30.1675Z" fill="black"/>
</g>
<defs>
<clipPath id="clip0_57_17">
<rect width="100" height="100" fill="white" transform="translate(0.899902 0.480011)"/>
</clipPath>
</defs>
</svg>
